<?xml version="1.0" encoding="UTF-8" standalone="no"?>
<!DOCTYPE svg PUBLIC "-//W3C//DTD SVG 1.1//EN"
 "http://www.w3.org/Graphics/SVG/1.1/DTD/svg11.dtd">
<!-- Generated by graphviz version 2.43.0 (0)
 -->
<!-- Title: directory_color_legend Pages: 1 -->
<svg width="181pt" height="457pt"
 viewBox="7.20 7.20 174.20 450.20" xmlns="http://www.w3.org/2000/svg" xmlns:xlink="http://www.w3.org/1999/xlink">
<g id="graph0" class="graph" transform="scale(1 1) rotate(0) translate(11.2 446.2)">
<title>directory_color_legend</title>
<polygon fill="white" stroke="transparent" points="-4,4 -4,-439 163,-439 163,4 -4,4"/>
<!-- directory_color_legend -->
<g id="node1" class="node">
<title>directory_color_legend</title>
<polygon fill="white" stroke="transparent" points="0.5,-405.5 0.5,-434.5 159.5,-434.5 159.5,-405.5 0.5,-405.5"/>
<polygon fill="none" stroke="black" points="0.5,-405.5 0.5,-434.5 159.5,-434.5 159.5,-405.5 0.5,-405.5"/>
<text text-anchor="start" x="43" y="-417.3" font-family="Times,serif" font-weight="bold" font-size="14.00">Directory</text>
<polygon fill="#bfecef" stroke="transparent" points="0.5,-376.5 0.5,-405.5 159.5,-405.5 159.5,-376.5 0.5,-376.5"/>
<polygon fill="none" stroke="black" points="0.5,-376.5 0.5,-405.5 159.5,-405.5 159.5,-376.5 0.5,-376.5"/>
<text text-anchor="start" x="66.5" y="-387.3" font-family="Times,serif" font-size="14.00">fsm</text>
<polygon fill="#d5e8d4" stroke="transparent" points="0.5,-347.5 0.5,-376.5 159.5,-376.5 159.5,-347.5 0.5,-347.5"/>
<polygon fill="none" stroke="black" points="0.5,-347.5 0.5,-376.5 159.5,-376.5 159.5,-347.5 0.5,-347.5"/>
<text text-anchor="start" x="64" y="-358.3" font-family="Times,serif" font-size="14.00">utils</text>
<polygon fill="#fff4b8" stroke="transparent" points="0.5,-318.5 0.5,-347.5 159.5,-347.5 159.5,-318.5 0.5,-318.5"/>
<polygon fill="none" stroke="black" points="0.5,-318.5 0.5,-347.5 159.5,-347.5 159.5,-318.5 0.5,-318.5"/>
<text text-anchor="start" x="63" y="-329.3" font-family="Times,serif" font-size="14.00">apps</text>
<polygon fill="#f6c3d5" stroke="transparent" points="0.5,-289.5 0.5,-318.5 159.5,-318.5 159.5,-289.5 0.5,-289.5"/>
<polygon fill="none" stroke="black" points="0.5,-289.5 0.5,-318.5 159.5,-318.5 159.5,-289.5 0.5,-289.5"/>
<text text-anchor="start" x="45" y="-300.3" font-family="Times,serif" font-size="14.00">controller</text>
<polygon fill="#bfd7ff" stroke="transparent" points="0.5,-260.5 0.5,-289.5 159.5,-289.5 159.5,-260.5 0.5,-260.5"/>
<polygon fill="none" stroke="black" points="0.5,-260.5 0.5,-289.5 159.5,-289.5 159.5,-260.5 0.5,-260.5"/>
<text text-anchor="start" x="7.5" y="-271.3" font-family="Times,serif" font-size="14.00">connectivity_service</text>
<polygon fill="#f4b6c2" stroke="transparent" points="0.5,-231.5 0.5,-260.5 159.5,-260.5 159.5,-231.5 0.5,-231.5"/>
<polygon fill="none" stroke="black" points="0.5,-231.5 0.5,-260.5 159.5,-260.5 159.5,-231.5 0.5,-231.5"/>
<text text-anchor="start" x="17.5" y="-242.3" font-family="Times,serif" font-size="14.00">process_manager</text>
<polygon fill="#c9e4de" stroke="transparent" points="0.5,-202.5 0.5,-231.5 159.5,-231.5 159.5,-202.5 0.5,-202.5"/>
<polygon fill="none" stroke="black" points="0.5,-202.5 0.5,-231.5 159.5,-231.5 159.5,-202.5 0.5,-202.5"/>
<text text-anchor="start" x="18.5" y="-213.3" font-family="Times,serif" font-size="14.00">session_manager</text>
<polygon fill="#d0d0d0" stroke="transparent" points="0.5,-173.5 0.5,-202.5 159.5,-202.5 159.5,-173.5 0.5,-173.5"/>
<polygon fill="none" stroke="black" points="0.5,-173.5 0.5,-202.5 159.5,-202.5 159.5,-173.5 0.5,-173.5"/>
<text text-anchor="start" x="14.5" y="-184.3" font-family="Times,serif" font-size="14.00">grpc_testing_tools</text>
<polygon fill="#d7c6ff" stroke="transparent" points="0.5,-144.5 0.5,-173.5 159.5,-173.5 159.5,-144.5 0.5,-144.5"/>
<polygon fill="none" stroke="black" points="0.5,-144.5 0.5,-173.5 159.5,-173.5 159.5,-144.5 0.5,-144.5"/>
<text text-anchor="start" x="41.5" y="-155.3" font-family="Times,serif" font-size="14.00">exceptions</text>
<polygon fill="#c7e9b0" stroke="transparent" points="0.5,-115.5 0.5,-144.5 159.5,-144.5 159.5,-115.5 0.5,-115.5"/>
<polygon fill="none" stroke="black" points="0.5,-115.5 0.5,-144.5 159.5,-144.5 159.5,-115.5 0.5,-115.5"/>
<text text-anchor="start" x="25.5" y="-126.3" font-family="Times,serif" font-size="14.00">k8s_exceptions</text>
<polygon fill="#bfe8c2" stroke="transparent" points="0.5,-86.5 0.5,-115.5 159.5,-115.5 159.5,-86.5 0.5,-86.5"/>
<polygon fill="none" stroke="black" points="0.5,-86.5 0.5,-115.5 159.5,-115.5 159.5,-86.5 0.5,-86.5"/>
<text text-anchor="start" x="42.5" y="-97.3" font-family="Times,serif" font-size="14.00">authoriser</text>
<polygon fill="#e8ddb5" stroke="transparent" points="0.5,-57.5 0.5,-86.5 159.5,-86.5 159.5,-57.5 0.5,-57.5"/>
<polygon fill="none" stroke="black" points="0.5,-57.5 0.5,-86.5 159.5,-86.5 159.5,-57.5 0.5,-57.5"/>
<text text-anchor="start" x="44.5" y="-68.3" font-family="Times,serif" font-size="14.00">processes</text>
<polygon fill="#f7c6a3" stroke="transparent" points="0.5,-28.5 0.5,-57.5 159.5,-57.5 159.5,-28.5 0.5,-28.5"/>
<polygon fill="none" stroke="black" points="0.5,-28.5 0.5,-57.5 159.5,-57.5 159.5,-28.5 0.5,-28.5"/>
<text text-anchor="start" x="35" y="-39.3" font-family="Times,serif" font-size="14.00">unified_shell</text>
<polygon fill="#ffd6a5" stroke="transparent" points="0.5,0.5 0.5,-28.5 159.5,-28.5 159.5,0.5 0.5,0.5"/>
<polygon fill="none" stroke="black" points="0.5,0.5 0.5,-28.5 159.5,-28.5 159.5,0.5 0.5,0.5"/>
<text text-anchor="start" x="31.5" y="-10.3" font-family="Times,serif" font-size="14.00">grpc_settings</text>
</g>
</g>
</svg>
